# Blender v2.78 (sub 0) OBJ File: 'wall.blend'
# www.blender.org
mtllib wall.mtl
o Cube
v 2.439160 -0.583648 -0.280481
v 2.439160 -0.583648 0.280481
v -5.933096 -0.583648 0.280481
v -5.933094 -0.583648 -0.280481
v 2.439162 0.583648 -0.280481
v 2.439157 0.583648 0.280481
v -5.933097 0.583648 0.280481
v -5.933096 0.583648 -0.280481
v 6.183453 -0.583648 -3.594058
v 6.183453 -0.583648 -3.033096
v 6.183455 0.583648 -3.594057
v 6.183450 0.583648 -3.033096
vt 0.0000 0.0000
vt 1.0000 0.0000
vt 1.0000 1.0000
vt 0.0000 1.0000
vt 0.0000 0.0000
vt 1.0000 0.0000
vt 1.0000 1.0000
vt 0.0000 1.0000
vt 0.0000 0.0000
vt 1.0000 1.0000
vt 0.0000 1.0000
vt 0.0000 0.0000
vt 1.0000 0.0000
vt 0.0000 1.0000
vt 0.0000 0.0000
vt 1.0000 0.0000
vt 1.0000 1.0000
vt 1.0000 0.0000
vt 1.0000 1.0000
vt 0.0000 1.0000
vt 0.0000 0.0000
vt 1.0000 0.0000
vt 1.0000 1.0000
vt 0.0000 1.0000
vt 1.0000 0.0000
vt 1.0000 1.0000
vt 0.0000 1.0000
vt 1.0000 1.0000
vt 0.0000 1.0000
vn 0.0000 -1.0000 -0.0000
vn 0.0000 1.0000 -0.0000
vn 0.6627 0.0000 0.7489
vn -0.0000 -0.0000 1.0000
vn -1.0000 -0.0000 -0.0000
vn 0.0000 0.0000 -1.0000
vn 1.0000 0.0000 0.0000
vn -0.6627 0.0000 -0.7489
usemtl Material
s off
f 1/1/1 2/2/1 3/3/1 4/4/1
f 5/5/2 8/6/2 7/7/2 6/8/2
f 6/9/3 2/2/3 10/10/3 12/11/3
f 2/12/4 6/13/4 7/7/4 3/14/4
f 3/15/5 7/16/5 8/17/5 4/4/5
f 5/5/6 1/18/6 4/19/6 8/20/6
f 9/21/7 11/22/7 12/23/7 10/24/7
f 1/1/8 5/25/8 11/26/8 9/27/8
f 2/12/1 1/18/1 9/28/1 10/24/1
f 5/5/2 6/13/2 12/23/2 11/29/2
